<?xml version="1.0"?>
<svg xmlns="http://www.w3.org/2000/svg" xmlns:xlink="http://www.w3.org/1999/xlink" viewBox="0 0 512 512" width="512" height="512"><linearGradient id="a" gradientUnits="userSpaceOnUse" x1="256" x2="256" y1="8" y2="512.892"><stop offset="0" stop-color="#00efd1"/><stop offset="1" stop-color="#00acea"/></linearGradient><linearGradient id="b" x1="412.097" x2="412.097" xlink:href="#a" y1="8" y2="512.892"/><linearGradient id="c" x1="102.267" x2="102.267" xlink:href="#a" y1="8" y2="512.892"/><path d="m256 232.8a70.1 70.1 0 1 0 -70.1-70.043 69.821 69.821 0 0 0 70.1 70.043zm-35.427-105.522a50.1 50.1 0 1 1 -14.673 35.479 49.748 49.748 0 0 1 14.673-35.479z" fill="url(#a)"/><path d="m386 342.624v-10.191a102.336 102.336 0 0 0 -78.443-99.352 10.049 10.049 0 0 0 -8.1 1.578 74.169 74.169 0 0 1 -86.205 0 10 10 0 0 0 -8.064-1.582 103.193 103.193 0 0 0 -56.507 35.543 102.1 102.1 0 0 0 -22.681 63.813v10.191a10.479 10.479 0 0 0 10.177 10.376h239.646a10.479 10.479 0 0 0 10.177-10.376zm-20-9.624h-220v-.567a82.033 82.033 0 0 1 18.248-51.257 83.15 83.15 0 0 1 40.758-27.368 94.223 94.223 0 0 0 102.148-.135 82.36 82.36 0 0 1 58.846 78.76z" fill="url(#a)"/><path d="m491.655 339.138a9.805 9.805 0 0 0 -10 9.768 67.2 67.2 0 0 1 -67.326 67.094h-60.053l34.92-40.521a9.86 9.86 0 0 0 -1.087-13.984 10 10 0 0 0 -14.1 1.145l-49.065 57.288a10.021 10.021 0 0 0 .021 13.052l49.064 56.9a10 10 0 0 0 14.105 1.048 10.283 10.283 0 0 0 1.042-14.335l-34.808-40.593h59.961a87.227 87.227 0 0 0 87.326-87.094 9.8 9.8 0 0 0 -10-9.768z" fill="url(#b)"/><path d="m128.562 150.386a10 10 0 0 0 14.1-1.08l49.116-57.259a10 10 0 0 0 -.019-13.047l-49.116-56.89a10 10 0 0 0 -14.1-1.034 10.281 10.281 0 0 0 -1.043 14.336l34.845 40.588h-64.674a87.227 87.227 0 0 0 -87.326 87.094 9.9 9.9 0 0 0 10 9.884 9.853 9.853 0 0 0 10-9.826 67.254 67.254 0 0 1 67.326-67.152h64.766l-34.954 40.517a9.724 9.724 0 0 0 1.079 13.869z" fill="url(#c)"/></svg>
